{"title":"The Bay 2012 VODRip H264 AC3 HS","uid":7786650,"size":1516400628,"categoryP":"video","categoryS":"movies","magnet":"?xt=urn:btih:ce48b01923cb3dcd3e6dcaa95847cb6a2494aa82&amp;dn=The+Bay+2012+VODRip+H264+AC3+HS&amp;tr=udp%3A%2F%2Ftracker.openbittorrent.com%3A80&amp;tr=udp%3A%2F%2Fopen.demonii.com%3A1337&amp;tr=udp%3A%2F%2Ftracker.coppersurfer.tk%3A6969&amp;tr=udp%3A%2F%2Fexodus.desync.com%3A6969","seeders":7,"leechers":2,"uploader":"lyrical1986","files":-1,"time":1351909603,"description":" &lt;a href=&quot;http://collider.com/wp-content/uploads/the-bay-poster.jpg&quot; rel=&quot;nofollow&quot; target=&quot;_NEW&quot;&gt;http://collider.com/wp-content/uploads/the-bay-poster.jpg&lt;/a&gt;\n\nThe Bay.2012.VODRip.H264.AC3.HS(Happy Halloween)\n &lt;a href=&quot;\nhttp://www.imdb.com/title/tt1713476/&quot; rel=&quot;nofollow&quot; target=&quot;_NEW&quot;&gt;\nhttp://www.imdb.com/title/tt1713476/&lt;/a&gt;\nFile size: 1.41 GiB\nDuration: 1h 25mn\nOverall bit rate: 2 374 Kbps\nID: 1\nFormat: MPEG-4 Visual\nFormat profile: Simple@L1\nFormat settings, BVOP: No\nFormat settings, QPel: No\nFormat settings, GMC: No warppoints\nFormat settings, Matrix: Default (H.263)\nDuration: 1h 25mn\nBit rate: 1 943 Kbps\nWidth: 640 pixels\nHeight: 360 pixels\nDisplay aspect ratio: 16:9\nFrame rate mode: Constant\nFrame rate: 23.976 fps\nColor space: YUV\nChroma subsampling: 4:2:0\nBit depth: 8 bits\nScan type: Progressive\nCompression mode: Lossy\nBits/(Pixel*Frame): 0.352\nStream size: 1.16 GiB (82%)\nWriting library: Lavc52.116.0\nDefault: Yes\nForced: No\n\nAudio\nID: 2\nFormat: AC-3\nFormat/Info: Audio Coding 3\nMode extension: CM (complete main)\nFormat settings, Endianness: Big\nMuxing mode: Header stripping\nCodec ID: A_AC3\nDuration: 1h 25mn\nBit rate mode: Constant\nBit rate: 384 Kbps\nChannel(s): 2 channels\nChannel positions: Front: L R\nSampling rate: 44.1 KHz\nBit depth: 16 bits\nCompression mode: Lossy\nStream size: 234 MiB (16%)\nDefault: Yes\nForced: No\n\nNote - We Already Stopped Doing Outside Upload..But This One Is For Our\nWell Wisher And Follower..Watch It The Same Date Of Release In Theater\nAnd Its A Halloween Gift From Us To All The Movie Lovers Enjoy The Movie\nA little Thanks Always Appreciated \n &lt;a href=&quot;\nhttp://1.2.3.11/bmi/i.imgur.com/WfaAb.png&quot; rel=&quot;nofollow&quot; target=&quot;_NEW&quot;&gt;\nhttp://1.2.3.11/bmi/i.imgur.com/WfaAb.png&lt;/a&gt; &lt;a href=&quot;\nhttp://1.2.3.11/bmi/i.imgur.com/aJ21o.png&quot; rel=&quot;nofollow&quot; target=&quot;_NEW&quot;&gt;\nhttp://1.2.3.11/bmi/i.imgur.com/aJ21o.png&lt;/a&gt; &lt;a href=&quot;\nhttp://1.2.3.12/bmi/i.imgur.com/gLGSg.png&quot; rel=&quot;nofollow&quot; target=&quot;_NEW&quot;&gt;\nhttp://1.2.3.12/bmi/i.imgur.com/gLGSg.png&lt;/a&gt;","torrent":{"xt":"urn:btih:ce48b01923cb3dcd3e6dcaa95847cb6a2494aa82","amp;dn":"The+Bay+2012+VODRip+H264+AC3+HS","amp;tr":["udp%3A%2F%2Ftracker.openbittorrent.com%3A80","udp%3A%2F%2Fopen.demonii.com%3A1337","udp%3A%2F%2Ftracker.coppersurfer.tk%3A6969","udp%3A%2F%2Fexodus.desync.com%3A6969"],"infoHash":"ce48b01923cb3dcd3e6dcaa95847cb6a2494aa82","infoHashBuffer":{"type":"Buffer","data":[206,72,176,25,35,203,61,205,62,109,202,169,88,71,203,106,36,148,170,130]},"announce":[],"urlList":[]}}